<?xml version="1.0" encoding="UTF-8"?>
<!DOCTYPE svg PUBLIC "-//W3C//DTD SVG 1.1//EN" "http://www.w3.org/Graphics/SVG/1.1/DTD/svg11.dtd">
<svg xmlns="http://www.w3.org/2000/svg" version="1.1" width="512px" height="512px" style="shape-rendering:geometricPrecision; text-rendering:geometricPrecision; image-rendering:optimizeQuality; fill-rule:evenodd; clip-rule:evenodd" xmlns:xlink="http://www.w3.org/1999/xlink">
<g><path style="opacity:0.476" fill="#b5b5b7" d="M 175.5,96.5 C 232.501,96.3333 289.501,96.5 346.5,97C 350.688,97.1762 354.688,97.6762 358.5,98.5C 297.158,99.1629 236.158,98.4963 175.5,96.5 Z"/></g>
<g><path style="opacity:0.082" fill="#838385" d="M 358.5,98.5 C 365.296,98.781 371.629,100.448 377.5,103.5C 371.018,101.999 364.685,100.332 358.5,98.5 Z"/></g>
<g><path style="opacity:0.999" fill="#fbfbfb" d="M 246.5,133.5 C 242.922,133.549 239.589,134.215 236.5,135.5C 228.717,136.277 221.383,138.277 214.5,141.5C 206.157,143.552 198.157,146.219 190.5,149.5C 183.128,151.36 176.128,154.026 169.5,157.5C 150.857,165.14 139.523,178.807 135.5,198.5C 134.883,198.611 134.383,198.944 134,199.5C 133.667,237.833 133.333,276.167 133,314.5C 132.287,288.281 131.954,262.281 132,236.5C 131.667,239.5 131.333,242.5 131,245.5C 129.294,246.308 128.461,247.641 128.5,249.5C 124.623,249.483 123.957,250.649 126.5,253C 124.595,253.826 124.261,254.993 125.5,256.5C 126.609,255.41 127.609,255.41 128.5,256.5C 129.167,258.5 129.833,260.5 130.5,262.5C 125.612,266.072 125.279,270.072 129.5,274.5C 127.913,276.446 128.246,277.946 130.5,279C 128.866,279.494 127.199,279.66 125.5,279.5C 125.015,283.481 122.681,285.648 118.5,286C 118.957,286.414 119.291,286.914 119.5,287.5C 117.063,288.803 114.896,290.47 113,292.5C 110.475,296.896 107.475,300.896 104,304.5C 103.465,302.729 102.631,302.396 101.5,303.5C 101.709,304.086 102.043,304.586 102.5,305C 101.333,305.5 100.5,306.333 100,307.5C 99.7212,257.36 99.5546,207.36 99.5,157.5C 99.5,154.167 99.5,150.833 99.5,147.5C 101.411,143.767 102.744,139.767 103.5,135.5C 103.66,133.847 104.326,132.514 105.5,131.5C 106.496,131.586 107.329,131.252 108,130.5C 108.725,128.051 109.725,125.717 111,123.5C 114.721,118.953 118.554,114.62 122.5,110.5C 123.436,109.026 124.77,108.026 126.5,107.5C 126.56,108.043 126.893,108.376 127.5,108.5C 133.773,105.587 140.107,102.92 146.5,100.5C 206.811,99.3486 267.145,99.1819 327.5,100C 329.433,100.251 331.266,100.751 333,101.5C 338.083,99.0218 343.25,99.0218 348.5,101.5C 349.167,101.333 349.833,101.167 350.5,101C 349.5,100.667 348.5,100.333 347.5,100C 353.635,99.3553 359.635,100.022 365.5,102C 363.833,102.333 362.167,102.667 360.5,103C 359.949,104.398 359.616,105.732 359.5,107C 363.7,108.87 366.533,112.037 368,116.5C 368.498,119.482 368.665,122.482 368.5,125.5C 370.167,125.5 371.833,125.5 373.5,125.5C 373.771,127.821 373.104,129.821 371.5,131.5C 372.737,132.281 373.737,133.281 374.5,134.5C 372.031,135.036 369.864,136.036 368,137.5C 368.11,141.129 368.276,144.796 368.5,148.5C 365.482,148.665 362.482,148.498 359.5,148C 361.921,145.906 364.588,144.24 367.5,143C 366.646,141.978 365.646,141.145 364.5,140.5C 362.684,141.815 361.017,143.315 359.5,145C 354.089,145.876 348.756,147.043 343.5,148.5C 343.5,145.167 343.5,141.833 343.5,138.5C 338.786,138.827 334.12,138.493 329.5,137.5C 328.661,133.747 326.494,131.414 323,130.5C 320.383,130.127 318.55,131.127 317.5,133.5C 315.929,131.585 313.929,130.585 311.5,130.5C 311.5,131.833 311.5,133.167 311.5,134.5C 305.212,135.546 301.879,132.88 301.5,126.5C 299.826,125.12 298.16,123.787 296.5,122.5C 293.114,124.373 290.114,126.873 287.5,130C 283.5,131 279.5,132 275.5,133C 276.5,133.333 277.5,133.667 278.5,134C 272.142,133.746 265.976,132.58 260,130.5C 255.373,131.555 250.873,132.555 246.5,133.5 Z"/></g>
<g><path style="opacity:0.996" fill="#f3f3f4" d="M 175.5,96.5 C 236.158,98.4963 297.158,99.1629 358.5,98.5C 364.685,100.332 371.018,101.999 377.5,103.5C 380.331,104.079 382.664,105.412 384.5,107.5C 386.951,110.277 389.951,112.277 393.5,113.5C 396.098,117.438 399.098,121.105 402.5,124.5C 401.916,127.285 402.916,128.952 405.5,129.5C 407.341,131.849 408.674,134.515 409.5,137.5C 409.517,141.534 410.517,145.201 412.5,148.5C 413.404,169.817 413.738,191.151 413.5,212.5C 412.21,211.942 411.377,210.942 411,209.5C 408.624,210.376 407.124,212.042 406.5,214.5C 404.374,211.345 402.541,208.012 401,204.5C 395.188,198.976 390.188,192.976 386,186.5C 382.15,183.646 378.65,180.479 375.5,177C 376.451,176.282 376.617,175.449 376,174.5C 373.321,172.475 370.154,170.142 366.5,167.5C 365.311,166.571 363.978,166.238 362.5,166.5C 362.78,163.612 361.447,162.112 358.5,162C 359.167,161.667 359.833,161.333 360.5,161C 357.344,161.053 354.844,159.886 353,157.5C 351.605,158.815 350.605,158.481 350,156.5C 349.692,157.308 349.192,157.975 348.5,158.5C 347.289,157.726 347.289,156.893 348.5,156C 348,155.833 347.5,155.667 347,155.5C 344.217,156.31 341.383,156.31 338.5,155.5C 333.299,153.433 327.966,151.767 322.5,150.5C 312.504,146.411 302.17,143.078 291.5,140.5C 288.063,139.055 284.397,138.055 280.5,137.5C 275.43,135.77 270.097,134.77 264.5,134.5C 258.69,133.51 252.69,133.177 246.5,133.5C 250.873,132.555 255.373,131.555 260,130.5C 265.976,132.58 272.142,133.746 278.5,134C 277.5,133.667 276.5,133.333 275.5,133C 279.5,132 283.5,131 287.5,130C 290.114,126.873 293.114,124.373 296.5,122.5C 298.16,123.787 299.826,125.12 301.5,126.5C 301.879,132.88 305.212,135.546 311.5,134.5C 311.5,133.167 311.5,131.833 311.5,130.5C 313.929,130.585 315.929,131.585 317.5,133.5C 318.55,131.127 320.383,130.127 323,130.5C 326.494,131.414 328.661,133.747 329.5,137.5C 334.12,138.493 338.786,138.827 343.5,138.5C 343.5,141.833 343.5,145.167 343.5,148.5C 348.756,147.043 354.089,145.876 359.5,145C 361.017,143.315 362.684,141.815 364.5,140.5C 365.646,141.145 366.646,141.978 367.5,143C 364.588,144.24 361.921,145.906 359.5,148C 362.482,148.498 365.482,148.665 368.5,148.5C 368.276,144.796 368.11,141.129 368,137.5C 369.864,136.036 372.031,135.036 374.5,134.5C 373.737,133.281 372.737,132.281 371.5,131.5C 373.104,129.821 373.771,127.821 373.5,125.5C 371.833,125.5 370.167,125.5 368.5,125.5C 368.665,122.482 368.498,119.482 368,116.5C 366.533,112.037 363.7,108.87 359.5,107C 359.616,105.732 359.949,104.398 360.5,103C 362.167,102.667 363.833,102.333 365.5,102C 359.635,100.022 353.635,99.3553 347.5,100C 348.5,100.333 349.5,100.667 350.5,101C 349.833,101.167 349.167,101.333 348.5,101.5C 343.25,99.0218 338.083,99.0218 333,101.5C 331.266,100.751 329.433,100.251 327.5,100C 267.145,99.1819 206.811,99.3486 146.5,100.5C 146.5,100.167 146.5,99.8333 146.5,99.5C 155.971,97.9358 165.638,96.9358 175.5,96.5 Z"/></g>
<g><path style="opacity:0.725" fill="#b8b8bc" d="M 146.5,99.5 C 146.5,99.8333 146.5,100.167 146.5,100.5C 140.107,102.92 133.773,105.587 127.5,108.5C 126.893,108.376 126.56,108.043 126.5,107.5C 132.593,103.467 139.26,100.801 146.5,99.5 Z"/></g>
<g><path style="opacity:0.024" fill="#828186" d="M 384.5,107.5 C 385.552,107.351 386.552,107.517 387.5,108C 389.763,109.617 391.763,111.45 393.5,113.5C 389.951,112.277 386.951,110.277 384.5,107.5 Z"/></g>
<g><path style="opacity:0.098" fill="#848385" d="M 122.5,110.5 C 118.554,114.62 114.721,118.953 111,123.5C 109.725,125.717 108.725,128.051 108,130.5C 107.329,131.252 106.496,131.586 105.5,131.5C 108.552,122.441 114.219,115.441 122.5,110.5 Z"/></g>
<g><path style="opacity:0.118" fill="#858586" d="M 393.5,113.5 C 397.628,116.29 400.628,119.957 402.5,124.5C 399.098,121.105 396.098,117.438 393.5,113.5 Z"/></g>
<g><path style="opacity:0.494" fill="#9b9b9c" d="M 402.5,124.5 C 404.25,125.659 405.25,127.326 405.5,129.5C 402.916,128.952 401.916,127.285 402.5,124.5 Z"/></g>
<g><path style="opacity:1" fill="#474649" d="M 253.5,134.5 C 252.391,135.29 251.058,135.79 249.5,136C 250.665,137.868 250.332,139.702 248.5,141.5C 241.688,144.839 236.022,149.339 231.5,155C 230.552,155.483 229.552,155.649 228.5,155.5C 228.338,157.824 227.172,159.491 225,160.5C 224.667,162.167 224.333,163.833 224,165.5C 221.14,168.234 217.973,170.234 214.5,171.5C 214.762,172.978 214.429,174.311 213.5,175.5C 210.366,178.132 206.866,180.132 203,181.5C 200.746,184.732 198.579,188.066 196.5,191.5C 197.791,193.59 197.124,194.924 194.5,195.5C 193.102,199.061 191.102,202.228 188.5,205C 186.051,205.725 183.717,206.725 181.5,208C 179.614,211.788 176.947,214.955 173.5,217.5C 168.119,220.717 162.786,224.051 157.5,227.5C 156.289,228.274 156.289,229.107 157.5,230C 154.356,231.692 151.023,232.858 147.5,233.5C 145.997,235.422 143.997,236.588 141.5,237C 139.951,238.214 138.785,239.714 138,241.5C 137.23,240.402 136.397,240.402 135.5,241.5C 135.5,238.833 135.5,236.167 135.5,233.5C 140.012,231.475 143.012,227.975 144.5,223C 146.715,222.83 148.715,222.163 150.5,221C 149.5,220.667 148.5,220.333 147.5,220C 155.616,213.555 163.449,206.721 171,199.5C 173.503,200.55 175.003,199.55 175.5,196.5C 180.069,193.255 184.236,189.589 188,185.5C 192.564,178.617 198.731,173.45 206.5,170C 207.57,167.258 209.07,164.758 211,162.5C 220.484,154.709 229.651,146.542 238.5,138C 238.167,137.667 237.833,137.333 237.5,137C 238.899,136.405 240.232,136.572 241.5,137.5C 245.03,134.885 249.03,133.885 253.5,134.5 Z"/></g>
<g><path style="opacity:1" fill="#4f4e51" d="M 246.5,133.5 C 252.69,133.177 258.69,133.51 264.5,134.5C 260.833,134.5 257.167,134.5 253.5,134.5C 249.03,133.885 245.03,134.885 241.5,137.5C 240.232,136.572 238.899,136.405 237.5,137C 237.833,137.333 238.167,137.667 238.5,138C 229.651,146.542 220.484,154.709 211,162.5C 209.07,164.758 207.57,167.258 206.5,170C 198.731,173.45 192.564,178.617 188,185.5C 184.236,189.589 180.069,193.255 175.5,196.5C 175.003,199.55 173.503,200.55 171,199.5C 163.449,206.721 155.616,213.555 147.5,220C 148.5,220.333 149.5,220.667 150.5,221C 148.715,222.163 146.715,222.83 144.5,223C 143.012,227.975 140.012,231.475 135.5,233.5C 135.5,229.167 135.5,224.833 135.5,220.5C 137.256,219.448 137.923,217.781 137.5,215.5C 138.552,215.649 139.552,215.483 140.5,215C 141.369,212.421 143.035,210.588 145.5,209.5C 146.251,210.376 146.751,211.376 147,212.5C 151.803,205.994 157.636,200.827 164.5,197C 166.845,194.986 168.845,192.653 170.5,190C 171.448,189.517 172.448,189.351 173.5,189.5C 173.744,186.737 175.077,184.571 177.5,183C 182.97,177.844 188.804,173.011 195,168.5C 195.483,167.552 195.649,166.552 195.5,165.5C 196.552,165.649 197.552,165.483 198.5,165C 200.017,163.315 201.684,161.815 203.5,160.5C 205.321,159.272 206.321,157.606 206.5,155.5C 210.56,156.152 212.56,154.485 212.5,150.5C 213.978,150.762 215.311,150.429 216.5,149.5C 217.5,147.833 218.833,146.5 220.5,145.5C 219.975,144.808 219.308,144.308 218.5,144C 221.33,143.131 223.997,141.964 226.5,140.5C 230.836,140.999 234.169,139.332 236.5,135.5C 239.589,134.215 242.922,133.549 246.5,133.5 Z"/></g>
<g><path style="opacity:0.361" fill="#959597" d="M 103.5,135.5 C 102.744,139.767 101.411,143.767 99.5,147.5C 99.8606,143.085 101.194,139.085 103.5,135.5 Z"/></g>
<g><path style="opacity:1" fill="#555557" d="M 236.5,135.5 C 234.169,139.332 230.836,140.999 226.5,140.5C 223.997,141.964 221.33,143.131 218.5,144C 219.308,144.308 219.975,144.808 220.5,145.5C 218.833,146.5 217.5,147.833 216.5,149.5C 215.311,150.429 213.978,150.762 212.5,150.5C 212.56,154.485 210.56,156.152 206.5,155.5C 206.321,157.606 205.321,159.272 203.5,160.5C 201.684,161.815 200.017,163.315 198.5,165C 197.552,165.483 196.552,165.649 195.5,165.5C 195.649,166.552 195.483,167.552 195,168.5C 188.804,173.011 182.97,177.844 177.5,183C 175.077,184.571 173.744,186.737 173.5,189.5C 172.448,189.351 171.448,189.517 170.5,190C 168.845,192.653 166.845,194.986 164.5,197C 157.636,200.827 151.803,205.994 147,212.5C 146.751,211.376 146.251,210.376 145.5,209.5C 143.035,210.588 141.369,212.421 140.5,215C 139.552,215.483 138.552,215.649 137.5,215.5C 137.923,217.781 137.256,219.448 135.5,220.5C 135.118,215.911 135.951,211.577 138,207.5C 141.608,204.936 144.774,201.936 147.5,198.5C 149.115,197.846 150.782,197.346 152.5,197C 151.549,196.282 151.383,195.449 152,194.5C 161.094,185.562 169.928,176.562 178.5,167.5C 179.167,168.833 179.833,170.167 180.5,171.5C 185.999,167.498 190.999,162.998 195.5,158C 197.217,156.441 199.217,155.608 201.5,155.5C 201.67,154.178 201.337,153.011 200.5,152C 203.943,151.779 204.276,150.779 201.5,149C 204.636,148.532 207.97,148.032 211.5,147.5C 211.567,146.041 211.234,144.708 210.5,143.5C 212.153,143.34 213.486,142.674 214.5,141.5C 221.383,138.277 228.717,136.277 236.5,135.5 Z"/></g>
<g><path style="opacity:0.353" fill="#a1a1a3" d="M 409.5,137.5 C 411.074,140.907 412.074,144.573 412.5,148.5C 410.517,145.201 409.517,141.534 409.5,137.5 Z"/></g>
<g><path style="opacity:1" fill="#868686" d="M 214.5,141.5 C 213.486,142.674 212.153,143.34 210.5,143.5C 203.823,145.631 197.156,147.631 190.5,149.5C 198.157,146.219 206.157,143.552 214.5,141.5 Z"/></g>
<g><path style="opacity:1" fill="#2f2e32" d="M 291.5,140.5 C 302.17,143.078 312.504,146.411 322.5,150.5C 320.159,150.992 318.159,152.159 316.5,154C 317.77,156.626 317.104,158.793 314.5,160.5C 313.833,160.167 313.167,159.833 312.5,159.5C 311.684,161.287 310.684,162.954 309.5,164.5C 310.246,165.736 310.579,167.07 310.5,168.5C 306.419,169.4 302.919,171.4 300,174.5C 299.378,176.731 298.211,178.565 296.5,180C 301.73,180.565 301.73,181.398 296.5,182.5C 295.328,182.081 294.328,181.415 293.5,180.5C 292.752,182.332 291.752,183.999 290.5,185.5C 287.798,186.039 285.631,187.372 284,189.5C 281.804,188.91 279.638,188.243 277.5,187.5C 274.72,188.443 271.886,188.443 269,187.5C 266.747,187.631 264.581,188.131 262.5,189C 263.056,189.383 263.389,189.883 263.5,190.5C 262.167,190.167 260.833,189.833 259.5,189.5C 258.391,189.443 257.391,189.11 256.5,188.5C 254.958,187.837 253.291,187.17 251.5,186.5C 252.376,185.749 253.376,185.249 254.5,185C 253.386,183.551 252.386,182.217 251.5,181C 253.207,180.805 254.874,180.805 256.5,181C 259.621,176.028 263.955,172.861 269.5,171.5C 269.5,170.5 269.5,169.5 269.5,168.5C 270.822,168.67 271.989,168.337 273,167.5C 273.333,165.5 273.667,163.5 274,161.5C 275.333,160.833 276.667,160.167 278,159.5C 280.077,154.323 283.077,149.656 287,145.5C 287.333,145.833 287.667,146.167 288,146.5C 288.495,144.527 288.662,142.527 288.5,140.5C 289.5,140.5 290.5,140.5 291.5,140.5 Z"/></g>
<g><path style="opacity:1" fill="#5c5c5e" d="M 210.5,143.5 C 211.234,144.708 211.567,146.041 211.5,147.5C 207.97,148.032 204.636,148.532 201.5,149C 204.276,150.779 203.943,151.779 200.5,152C 201.337,153.011 201.67,154.178 201.5,155.5C 199.217,155.608 197.217,156.441 195.5,158C 190.999,162.998 185.999,167.498 180.5,171.5C 179.833,170.167 179.167,168.833 178.5,167.5C 169.928,176.562 161.094,185.562 152,194.5C 151.383,195.449 151.549,196.282 152.5,197C 150.782,197.346 149.115,197.846 147.5,198.5C 144.774,201.936 141.608,204.936 138,207.5C 135.951,211.577 135.118,215.911 135.5,220.5C 135.5,224.833 135.5,229.167 135.5,233.5C 135.5,236.167 135.5,238.833 135.5,241.5C 135.5,245.833 135.5,250.167 135.5,254.5C 135.5,262.167 135.5,269.833 135.5,277.5C 135.5,287.833 135.5,298.167 135.5,308.5C 135.5,310.167 135.5,311.833 135.5,313.5C 135.167,313.5 134.833,313.5 134.5,313.5C 134.185,275.469 134.518,237.469 135.5,199.5C 139.046,195.92 141.38,191.586 142.5,186.5C 143.354,185.478 144.354,184.645 145.5,184C 144.549,183.282 144.383,182.449 145,181.5C 146.483,178.839 148.65,177.172 151.5,176.5C 151.763,171.569 154.429,169.069 159.5,169C 158.833,168.667 158.167,168.333 157.5,168C 160.667,165.5 163.833,163 167,160.5C 167.333,160.833 167.667,161.167 168,161.5C 168.791,160.255 169.291,158.922 169.5,157.5C 176.128,154.026 183.128,151.36 190.5,149.5C 197.156,147.631 203.823,145.631 210.5,143.5 Z"/></g>
<g><path style="opacity:1" fill="#222224" d="M 322.5,150.5 C 327.966,151.767 333.299,153.433 338.5,155.5C 348.204,159.529 356.87,165.196 364.5,172.5C 365.441,174.772 366.774,176.772 368.5,178.5C 368.5,178.833 368.5,179.167 368.5,179.5C 367.542,179.047 366.708,178.381 366,177.5C 365.667,178.167 365.333,178.833 365,179.5C 363.026,179.353 361.026,179.019 359,178.5C 357.165,180.449 355.999,182.783 355.5,185.5C 354.522,185.023 353.689,184.357 353,183.5C 351.957,185.701 351.123,188.034 350.5,190.5C 347.141,193.252 344.808,196.585 343.5,200.5C 336.21,201.117 333.376,205.117 335,212.5C 333.06,209.392 330.394,208.725 327,210.5C 324.924,207.445 322.258,206.445 319,207.5C 314.314,204.196 309.147,201.863 303.5,200.5C 300.239,201.053 299.239,202.72 300.5,205.5C 289.845,201.502 279.178,197.502 268.5,193.5C 267.232,191.953 265.565,190.953 263.5,190.5C 263.389,189.883 263.056,189.383 262.5,189C 264.581,188.131 266.747,187.631 269,187.5C 271.886,188.443 274.72,188.443 277.5,187.5C 279.638,188.243 281.804,188.91 284,189.5C 285.631,187.372 287.798,186.039 290.5,185.5C 291.752,183.999 292.752,182.332 293.5,180.5C 294.328,181.415 295.328,182.081 296.5,182.5C 301.73,181.398 301.73,180.565 296.5,180C 298.211,178.565 299.378,176.731 300,174.5C 302.919,171.4 306.419,169.4 310.5,168.5C 310.579,167.07 310.246,165.736 309.5,164.5C 310.684,162.954 311.684,161.287 312.5,159.5C 313.167,159.833 313.833,160.167 314.5,160.5C 317.104,158.793 317.77,156.626 316.5,154C 318.159,152.159 320.159,150.992 322.5,150.5 Z"/></g>
<g><path style="opacity:1" fill="#757575" d="M 169.5,157.5 C 169.291,158.922 168.791,160.255 168,161.5C 167.667,161.167 167.333,160.833 167,160.5C 163.833,163 160.667,165.5 157.5,168C 158.167,168.333 158.833,168.667 159.5,169C 154.429,169.069 151.763,171.569 151.5,176.5C 148.65,177.172 146.483,178.839 145,181.5C 144.383,182.449 144.549,183.282 145.5,184C 144.354,184.645 143.354,185.478 142.5,186.5C 141.38,191.586 139.046,195.92 135.5,199.5C 135.5,199.167 135.5,198.833 135.5,198.5C 139.523,178.807 150.857,165.14 169.5,157.5 Z"/></g>
<g><path style="opacity:1" fill="#3b3a3e" d="M 280.5,137.5 C 284.397,138.055 288.063,139.055 291.5,140.5C 290.5,140.5 289.5,140.5 288.5,140.5C 288.662,142.527 288.495,144.527 288,146.5C 287.667,146.167 287.333,145.833 287,145.5C 283.077,149.656 280.077,154.323 278,159.5C 276.667,160.167 275.333,160.833 274,161.5C 273.667,163.5 273.333,165.5 273,167.5C 271.989,168.337 270.822,168.67 269.5,168.5C 269.5,169.5 269.5,170.5 269.5,171.5C 263.955,172.861 259.621,176.028 256.5,181C 254.874,180.805 253.207,180.805 251.5,181C 252.386,182.217 253.386,183.551 254.5,185C 253.376,185.249 252.376,185.749 251.5,186.5C 253.291,187.17 254.958,187.837 256.5,188.5C 254.143,188.337 251.81,188.503 249.5,189C 246.968,190.456 244.301,191.623 241.5,192.5C 237.203,193.655 233.203,195.321 229.5,197.5C 219.42,201.304 209.42,205.304 199.5,209.5C 198.226,208.811 198.226,207.977 199.5,207C 198.5,206.667 197.5,206.333 196.5,206C 198.155,204.556 198.822,202.722 198.5,200.5C 200.484,200.617 202.15,199.95 203.5,198.5C 205.381,193.946 208.714,191.28 213.5,190.5C 214.413,188.165 215.747,185.999 217.5,184C 221.275,182.394 224.942,180.56 228.5,178.5C 229.374,176.253 229.708,173.92 229.5,171.5C 233.077,171.105 235.744,169.271 237.5,166C 238.448,165.517 239.448,165.351 240.5,165.5C 241.091,162.386 242.758,159.886 245.5,158C 248.291,156.614 250.791,154.78 253,152.5C 253.333,152.833 253.667,153.167 254,153.5C 255.26,148.341 256.426,143.174 257.5,138C 260.366,136.543 263.366,136.21 266.5,137C 265.396,138.131 265.729,138.965 267.5,139.5C 268.711,138.726 268.711,137.893 267.5,137C 269.165,137.744 270.831,137.577 272.5,136.5C 273.167,136.667 273.833,136.833 274.5,137C 273.289,137.893 273.289,138.726 274.5,139.5C 276.179,137.896 278.179,137.229 280.5,137.5 Z"/></g>
<g><path style="opacity:1" fill="#1b1a1d" d="M 368.5,179.5 C 368.643,181.262 368.309,182.929 367.5,184.5C 369.2,187.039 370.7,189.705 372,192.5C 372.202,198.762 373.035,204.928 374.5,211C 373.545,219.124 373.212,227.29 373.5,235.5C 372.787,228.803 371.62,222.803 370,217.5C 369.667,217.833 369.333,218.167 369,218.5C 367.686,217.687 366.519,216.687 365.5,215.5C 364.252,219.197 363.252,222.864 362.5,226.5C 361.679,223.553 361.179,220.553 361,217.5C 359.731,221.649 359.065,225.982 359,230.5C 354.269,234.932 349.436,235.098 344.5,231C 343.167,229 341.833,227 340.5,225C 336.053,223.61 332.053,221.444 328.5,218.5C 326.528,219.305 325.028,220.639 324,222.5C 321.997,219.5 321.164,216.167 321.5,212.5C 320.5,212.5 319.5,212.5 318.5,212.5C 318.5,213.833 318.5,215.167 318.5,216.5C 317.549,215.081 317.216,213.415 317.5,211.5C 315.901,211.232 314.568,211.566 313.5,212.5C 313.167,212.5 312.833,212.5 312.5,212.5C 312.5,211.833 312.167,211.5 311.5,211.5C 308.126,209.138 304.46,207.138 300.5,205.5C 299.239,202.72 300.239,201.053 303.5,200.5C 309.147,201.863 314.314,204.196 319,207.5C 322.258,206.445 324.924,207.445 327,210.5C 330.394,208.725 333.06,209.392 335,212.5C 333.376,205.117 336.21,201.117 343.5,200.5C 344.808,196.585 347.141,193.252 350.5,190.5C 351.123,188.034 351.957,185.701 353,183.5C 353.689,184.357 354.522,185.023 355.5,185.5C 355.999,182.783 357.165,180.449 359,178.5C 361.026,179.019 363.026,179.353 365,179.5C 365.333,178.833 365.667,178.167 366,177.5C 366.708,178.381 367.542,179.047 368.5,179.5 Z"/></g>
<g><path style="opacity:1" fill="#424043" d="M 253.5,134.5 C 257.167,134.5 260.833,134.5 264.5,134.5C 270.097,134.77 275.43,135.77 280.5,137.5C 278.179,137.229 276.179,137.896 274.5,139.5C 273.289,138.726 273.289,137.893 274.5,137C 273.833,136.833 273.167,136.667 272.5,136.5C 270.831,137.577 269.165,137.744 267.5,137C 268.711,137.893 268.711,138.726 267.5,139.5C 265.729,138.965 265.396,138.131 266.5,137C 263.366,136.21 260.366,136.543 257.5,138C 256.426,143.174 255.26,148.341 254,153.5C 253.667,153.167 253.333,152.833 253,152.5C 250.791,154.78 248.291,156.614 245.5,158C 242.758,159.886 241.091,162.386 240.5,165.5C 239.448,165.351 238.448,165.517 237.5,166C 235.744,169.271 233.077,171.105 229.5,171.5C 229.708,173.92 229.374,176.253 228.5,178.5C 224.942,180.56 221.275,182.394 217.5,184C 215.747,185.999 214.413,188.165 213.5,190.5C 208.714,191.28 205.381,193.946 203.5,198.5C 202.15,199.95 200.484,200.617 198.5,200.5C 198.822,202.722 198.155,204.556 196.5,206C 197.5,206.333 198.5,206.667 199.5,207C 198.226,207.977 198.226,208.811 199.5,209.5C 198.833,210.167 198.167,210.833 197.5,211.5C 196.833,211.833 196.167,212.167 195.5,212.5C 194.434,211.308 193.601,211.641 193,213.5C 191.983,210.972 190.816,210.972 189.5,213.5C 187.523,212.812 185.523,213.145 183.5,214.5C 184.641,215.425 184.641,216.259 183.5,217C 182.101,217.595 180.768,217.428 179.5,216.5C 178.261,218.007 178.595,219.174 180.5,220C 175.927,221.575 173.094,224.741 172,229.5C 171.586,229.043 171.086,228.709 170.5,228.5C 169.667,229.5 168.833,230.5 168,231.5C 167.282,230.549 166.449,230.383 165.5,231C 163.495,235.449 160.328,238.949 156,241.5C 155.282,240.549 154.449,240.383 153.5,241C 151.366,243.886 149.032,246.553 146.5,249C 142.281,249.725 139.114,251.892 137,255.5C 136.617,254.944 136.117,254.611 135.5,254.5C 135.5,250.167 135.5,245.833 135.5,241.5C 136.397,240.402 137.23,240.402 138,241.5C 138.785,239.714 139.951,238.214 141.5,237C 143.997,236.588 145.997,235.422 147.5,233.5C 151.023,232.858 154.356,231.692 157.5,230C 156.289,229.107 156.289,228.274 157.5,227.5C 162.786,224.051 168.119,220.717 173.5,217.5C 176.947,214.955 179.614,211.788 181.5,208C 183.717,206.725 186.051,205.725 188.5,205C 191.102,202.228 193.102,199.061 194.5,195.5C 197.124,194.924 197.791,193.59 196.5,191.5C 198.579,188.066 200.746,184.732 203,181.5C 206.866,180.132 210.366,178.132 213.5,175.5C 214.429,174.311 214.762,172.978 214.5,171.5C 217.973,170.234 221.14,168.234 224,165.5C 224.333,163.833 224.667,162.167 225,160.5C 227.172,159.491 228.338,157.824 228.5,155.5C 229.552,155.649 230.552,155.483 231.5,155C 236.022,149.339 241.688,144.839 248.5,141.5C 250.332,139.702 250.665,137.868 249.5,136C 251.058,135.79 252.391,135.29 253.5,134.5 Z"/></g>
<g><path style="opacity:0.125" fill="#908894" d="M 412.5,148.5 C 413.309,150.292 413.809,152.292 414,154.5C 414.832,220.668 414.665,286.668 413.5,352.5C 413.5,332.167 413.5,311.833 413.5,291.5C 413.5,265.167 413.5,238.833 413.5,212.5C 413.738,191.151 413.404,169.817 412.5,148.5 Z"/></g>
<g><path style="opacity:1" fill="#fbfbfb" d="M 256.5,188.5 C 257.391,189.11 258.391,189.443 259.5,189.5C 262.053,191.584 265.053,192.917 268.5,193.5C 279.178,197.502 289.845,201.502 300.5,205.5C 304.46,207.138 308.126,209.138 311.5,211.5C 304.163,215.168 296.83,218.835 289.5,222.5C 289.719,223.675 289.386,224.675 288.5,225.5C 285.923,226.943 283.59,228.61 281.5,230.5C 276.106,231.114 271.606,233.447 268,237.5C 267.329,236.748 266.496,236.414 265.5,236.5C 260.03,231.388 254.03,230.388 247.5,233.5C 244.833,234.167 243.167,235.833 242.5,238.5C 241.833,238.5 241.5,238.833 241.5,239.5C 240.883,239.611 240.383,239.944 240,240.5C 239.199,243.367 239.366,246.034 240.5,248.5C 241.745,252.746 244.412,255.746 248.5,257.5C 249.833,265.167 249.833,272.833 248.5,280.5C 247.478,280.855 246.811,281.522 246.5,282.5C 237.833,287.5 229.167,292.5 220.5,297.5C 219.564,296.026 218.23,295.026 216.5,294.5C 214.833,292.167 212.833,290.167 210.5,288.5C 207.265,282.262 202.598,277.262 196.5,273.5C 195.334,253.842 195.167,234.175 196,214.5C 197.039,213.756 197.539,212.756 197.5,211.5C 198.167,210.833 198.833,210.167 199.5,209.5C 209.42,205.304 219.42,201.304 229.5,197.5C 234.375,197.631 238.375,195.964 241.5,192.5C 244.301,191.623 246.968,190.456 249.5,189C 251.81,188.503 254.143,188.337 256.5,188.5 Z"/></g>
<g><path style="opacity:1" fill="#969697" d="M 259.5,189.5 C 260.833,189.833 262.167,190.167 263.5,190.5C 265.565,190.953 267.232,191.953 268.5,193.5C 265.053,192.917 262.053,191.584 259.5,189.5 Z"/></g>
<g><path style="opacity:1" fill="#bebebf" d="M 241.5,192.5 C 238.375,195.964 234.375,197.631 229.5,197.5C 233.203,195.321 237.203,193.655 241.5,192.5 Z"/></g>
<g><path style="opacity:1" fill="#e1d5e7" d="M 311.5,211.5 C 312.167,211.5 312.5,211.833 312.5,212.5C 311.909,213.151 311.243,213.818 310.5,214.5C 311.724,235.323 311.724,256.323 310.5,277.5C 310.5,277.833 310.5,278.167 310.5,278.5C 304.519,283.477 298.519,288.477 292.5,293.5C 292.421,292.07 292.754,290.736 293.5,289.5C 296.393,286.104 299.726,283.271 303.5,281C 309.354,276.093 310.687,270.26 307.5,263.5C 307.719,262.062 308.219,260.729 309,259.5C 309.333,259.833 309.667,260.167 310,260.5C 310.815,255.648 310.648,250.981 309.5,246.5C 309.393,242.465 309.726,238.465 310.5,234.5C 310.563,232.519 309.896,230.852 308.5,229.5C 306.277,228.318 304.11,228.318 302,229.5C 297.521,231.361 293.687,234.028 290.5,237.5C 289.495,236.89 289.662,236.224 291,235.5C 291.667,234.167 291.667,232.833 291,231.5C 287.218,236.122 282.718,239.789 277.5,242.5C 275.954,241.788 274.954,240.622 274.5,239C 276.802,236.172 279.135,233.338 281.5,230.5C 283.59,228.61 285.923,226.943 288.5,225.5C 289.386,224.675 289.719,223.675 289.5,222.5C 296.83,218.835 304.163,215.168 311.5,211.5 Z"/></g>
<g><path style="opacity:1" fill="#141416" d="M 373.5,235.5 C 372.315,249.464 372.315,263.464 373.5,277.5C 373.105,283.742 372.105,289.742 370.5,295.5C 370.391,288.516 370.391,281.682 370.5,275C 369.285,272.904 368.451,273.071 368,275.5C 367.709,280.288 367.542,284.955 367.5,289.5C 366.511,285.893 366.177,282.226 366.5,278.5C 365.167,278.5 363.833,278.5 362.5,278.5C 362.967,281.38 362.134,283.713 360,285.5C 357.179,284.013 355.013,281.846 353.5,279C 349.909,278.211 346.409,278.378 343,279.5C 342.667,275.167 342.333,270.833 342,266.5C 340.103,257.649 337.77,248.982 335,240.5C 333.954,238.91 332.787,237.41 331.5,236C 331.833,235.667 332.167,235.333 332.5,235C 329.054,234.482 326.721,232.648 325.5,229.5C 324.675,228.614 323.675,228.281 322.5,228.5C 323.342,224.379 322.009,221.379 318.5,219.5C 318.5,218.5 318.5,217.5 318.5,216.5C 318.5,215.167 318.5,213.833 318.5,212.5C 319.5,212.5 320.5,212.5 321.5,212.5C 321.164,216.167 321.997,219.5 324,222.5C 325.028,220.639 326.528,219.305 328.5,218.5C 332.053,221.444 336.053,223.61 340.5,225C 341.833,227 343.167,229 344.5,231C 349.436,235.098 354.269,234.932 359,230.5C 359.065,225.982 359.731,221.649 361,217.5C 361.179,220.553 361.679,223.553 362.5,226.5C 363.252,222.864 364.252,219.197 365.5,215.5C 366.519,216.687 367.686,217.687 369,218.5C 369.333,218.167 369.667,217.833 370,217.5C 371.62,222.803 372.787,228.803 373.5,235.5 Z"/></g>
<g><path style="opacity:1" fill="#020204" d="M 318.5,225.5 C 320.243,230.012 321.743,234.678 323,239.5C 322.792,250.302 323.959,260.802 326.5,271C 325.978,271.561 325.645,272.228 325.5,273C 326.218,276.461 326.718,279.961 327,283.5C 327.374,284.416 327.874,285.25 328.5,286C 327.497,294.191 326.163,302.358 324.5,310.5C 323.5,310.5 322.5,310.5 321.5,310.5C 321.657,311.873 321.49,313.207 321,314.5C 317.018,319.649 312.518,324.315 307.5,328.5C 305.411,327.197 303.744,327.697 302.5,330C 303.167,330.667 303.833,331.333 304.5,332C 303.167,332 301.833,332 300.5,332C 294.379,336.233 288.046,340.233 281.5,344C 278.482,344.499 275.482,344.332 272.5,343.5C 267.258,341.685 261.925,340.185 256.5,339C 253.864,337.851 251.864,336.017 250.5,333.5C 249.833,333.833 249.167,334.167 248.5,334.5C 248.264,333.753 247.93,332.92 247.5,332C 246.167,331.333 244.833,330.667 243.5,330C 247.351,329.46 251.185,329.626 255,330.5C 258.269,330.077 261.436,329.244 264.5,328C 278.718,319.726 293.051,311.726 307.5,304C 314.556,299.901 317.556,293.734 316.5,285.5C 317.167,265.5 317.833,245.5 318.5,225.5 Z"/></g>
<g><path style="opacity:1" fill="#d2afdc" d="M 312.5,212.5 C 312.833,212.5 313.167,212.5 313.5,212.5C 314.6,213.605 315.267,214.938 315.5,216.5C 315.667,235.503 315.5,254.503 315,273.5C 313.624,274.705 312.458,276.038 311.5,277.5C 311.167,277.5 310.833,277.5 310.5,277.5C 311.724,256.323 311.724,235.323 310.5,214.5C 311.243,213.818 311.909,213.151 312.5,212.5 Z"/></g>
<g><path style="opacity:1" fill="#3a393d" d="M 195.5,212.5 C 194.512,234.091 194.178,255.758 194.5,277.5C 194.167,277.5 193.833,277.5 193.5,277.5C 193.5,269.833 193.5,262.167 193.5,254.5C 193.666,244.494 193.5,234.494 193,224.5C 190.325,231.196 187.659,237.863 185,244.5C 177.767,247.517 171.933,252.85 167.5,260.5C 163.227,262.328 158.894,264.828 154.5,268C 153.663,269.011 153.33,270.178 153.5,271.5C 152.167,271.5 150.833,271.5 149.5,271.5C 149.657,272.873 149.49,274.207 149,275.5C 148,276.833 147,276.833 146,275.5C 144.667,278.167 142.667,280.167 140,281.5C 138.745,280.789 137.579,279.956 136.5,279C 137.84,276.821 137.507,276.321 135.5,277.5C 135.5,269.833 135.5,262.167 135.5,254.5C 136.117,254.611 136.617,254.944 137,255.5C 139.114,251.892 142.281,249.725 146.5,249C 149.032,246.553 151.366,243.886 153.5,241C 154.449,240.383 155.282,240.549 156,241.5C 160.328,238.949 163.495,235.449 165.5,231C 166.449,230.383 167.282,230.549 168,231.5C 168.833,230.5 169.667,229.5 170.5,228.5C 171.086,228.709 171.586,229.043 172,229.5C 173.094,224.741 175.927,221.575 180.5,220C 178.595,219.174 178.261,218.007 179.5,216.5C 180.768,217.428 182.101,217.595 183.5,217C 184.641,216.259 184.641,215.425 183.5,214.5C 185.523,213.145 187.523,212.812 189.5,213.5C 190.816,210.972 191.983,210.972 193,213.5C 193.601,211.641 194.434,211.308 195.5,212.5 Z"/></g>
<g><path style="opacity:1" fill="#545454" d="M 247.5,233.5 C 246.167,235.5 244.5,237.167 242.5,238.5C 243.167,235.833 244.833,234.167 247.5,233.5 Z"/></g>
<g><path style="opacity:1" fill="#dcd9e0" d="M 309.5,246.5 C 307.9,245.488 306.566,245.988 305.5,248C 306.451,248.718 306.617,249.551 306,250.5C 304.491,251.09 302.991,251.756 301.5,252.5C 302.186,254.064 302.019,255.731 301,257.5C 300.299,259.762 299.132,260.762 297.5,260.5C 298.325,261.386 299.325,261.719 300.5,261.5C 300.762,262.978 300.429,264.311 299.5,265.5C 296.039,270.929 294.206,270.263 294,263.5C 293.315,266.057 291.815,267.891 289.5,269C 290.167,269.333 290.833,269.667 291.5,270C 290.335,271.084 289.002,271.917 287.5,272.5C 286.792,275.366 286.125,278.2 285.5,281C 282.071,282.987 278.904,282.487 276,279.5C 273.602,279.065 271.269,279.731 269,281.5C 268.612,280.572 267.945,279.905 267,279.5C 265.667,280.167 264.333,280.833 263,281.5C 262.228,281.355 261.561,281.022 261,280.5C 260.5,273.174 260.334,265.841 260.5,258.5C 268.959,252.686 270.626,245.353 265.5,236.5C 266.496,236.414 267.329,236.748 268,237.5C 271.606,233.447 276.106,231.114 281.5,230.5C 279.135,233.338 276.802,236.172 274.5,239C 274.954,240.622 275.954,241.788 277.5,242.5C 282.718,239.789 287.218,236.122 291,231.5C 291.667,232.833 291.667,234.167 291,235.5C 289.662,236.224 289.495,236.89 290.5,237.5C 293.687,234.028 297.521,231.361 302,229.5C 304.11,228.318 306.277,228.318 308.5,229.5C 309.896,230.852 310.563,232.519 310.5,234.5C 309.726,238.465 309.393,242.465 309.5,246.5 Z"/></g>
<g><path style="opacity:1" fill="#c4bdcc" d="M 368.5,179.5 C 368.5,179.167 368.5,178.833 368.5,178.5C 369.922,178.709 371.255,179.209 372.5,180C 376.653,183.658 380.32,187.825 383.5,192.5C 383.604,194.703 384.27,196.703 385.5,198.5C 384.957,198.56 384.624,198.893 384.5,199.5C 389.957,215.198 390.957,231.198 387.5,247.5C 388.449,273.545 389.116,299.545 389.5,325.5C 387.822,329.611 386.155,333.611 384.5,337.5C 384.607,335.621 384.107,335.288 383,336.5C 381.591,340.316 379.924,343.983 378,347.5C 377.31,348.738 376.81,348.738 376.5,347.5C 376.833,346.167 377.167,344.833 377.5,343.5C 379.83,340.173 381.663,336.507 383,332.5C 384.39,323.805 385.89,315.138 387.5,306.5C 386.032,291.536 385.032,276.536 384.5,261.5C 384.5,252.166 384.5,242.833 384.5,233.5C 387.981,225.428 388.481,217.095 386,208.5C 384.794,204.55 383.794,200.55 383,196.5C 382.623,195.058 381.79,194.058 380.5,193.5C 379.702,189.036 377.036,186.703 372.5,186.5C 371.921,183.669 370.588,181.336 368.5,179.5 Z"/></g>
<g><path style="opacity:1" fill="#151517" d="M 265.5,236.5 C 270.626,245.353 268.959,252.686 260.5,258.5C 259.662,258.842 259.328,259.508 259.5,260.5C 258.903,268.398 258.069,276.398 257,284.5C 255.428,282.411 253.595,282.411 251.5,284.5C 250.201,283.91 249.368,282.91 249,281.5C 248.329,282.252 247.496,282.586 246.5,282.5C 246.811,281.522 247.478,280.855 248.5,280.5C 249.833,272.833 249.833,265.167 248.5,257.5C 244.412,255.746 241.745,252.746 240.5,248.5C 240.368,245.43 240.701,242.43 241.5,239.5C 241.5,238.833 241.833,238.5 242.5,238.5C 244.5,237.167 246.167,235.5 247.5,233.5C 254.03,230.388 260.03,231.388 265.5,236.5 Z"/></g>
<g><path style="opacity:1" fill="#8e8e8e" d="M 241.5,239.5 C 240.701,242.43 240.368,245.43 240.5,248.5C 239.366,246.034 239.199,243.367 240,240.5C 240.383,239.944 240.883,239.611 241.5,239.5 Z"/></g>
<g><path style="opacity:1" fill="#cfcdd3" d="M 309.5,246.5 C 310.648,250.981 310.815,255.648 310,260.5C 309.667,260.167 309.333,259.833 309,259.5C 308.219,260.729 307.719,262.062 307.5,263.5C 310.687,270.26 309.354,276.093 303.5,281C 299.726,283.271 296.393,286.104 293.5,289.5C 292.754,290.736 292.421,292.07 292.5,293.5C 292.167,294.167 291.833,294.833 291.5,295.5C 290.833,295.833 290.167,296.167 289.5,296.5C 287.801,296.66 286.134,296.494 284.5,296C 276.251,291.293 268.084,286.459 260,281.5C 259.5,274.508 259.334,267.508 259.5,260.5C 259.328,259.508 259.662,258.842 260.5,258.5C 260.334,265.841 260.5,273.174 261,280.5C 261.561,281.022 262.228,281.355 263,281.5C 264.333,280.833 265.667,280.167 267,279.5C 267.945,279.905 268.612,280.572 269,281.5C 271.269,279.731 273.602,279.065 276,279.5C 278.904,282.487 282.071,282.987 285.5,281C 286.125,278.2 286.792,275.366 287.5,272.5C 289.002,271.917 290.335,271.084 291.5,270C 290.833,269.667 290.167,269.333 289.5,269C 291.815,267.891 293.315,266.057 294,263.5C 294.206,270.263 296.039,270.929 299.5,265.5C 300.429,264.311 300.762,262.978 300.5,261.5C 299.325,261.719 298.325,261.386 297.5,260.5C 299.132,260.762 300.299,259.762 301,257.5C 302.019,255.731 302.186,254.064 301.5,252.5C 302.991,251.756 304.491,251.09 306,250.5C 306.617,249.551 306.451,248.718 305.5,248C 306.566,245.988 307.9,245.488 309.5,246.5 Z"/></g>
<g><path style="opacity:1" fill="#32193b" d="M 373.5,189.5 C 374.167,189.5 374.5,189.833 374.5,190.5C 375.381,194.454 376.048,198.454 376.5,202.5C 376.667,239.168 376.5,275.835 376,312.5C 375.478,316.584 374.645,320.584 373.5,324.5C 372.492,328.683 370.492,332.349 367.5,335.5C 366.964,332.302 367.631,329.635 369.5,327.5C 372.826,322.952 374.66,317.618 375,311.5C 375.667,277.167 375.667,242.833 375,208.5C 374.654,202.143 374.154,195.81 373.5,189.5 Z"/></g>
<g><path style="opacity:1" fill="#c5abd1" d="M 372.5,186.5 C 377.036,186.703 379.702,189.036 380.5,193.5C 381.013,197.229 381.846,200.896 383,204.5C 383.176,229.209 383.676,253.876 384.5,278.5C 383.525,291.156 383.191,303.822 383.5,316.5C 382.699,279.852 382.199,243.185 382,206.5C 381.392,204.934 380.558,203.6 379.5,202.5C 379.96,197.44 378.293,193.44 374.5,190.5C 374.5,189.833 374.167,189.5 373.5,189.5C 373.443,188.391 373.11,187.391 372.5,186.5 Z"/></g>
<g><path style="opacity:1" fill="#2f2e33" d="M 193.5,254.5 C 192.732,253.737 192.232,252.737 192,251.5C 191.667,251.833 191.333,252.167 191,252.5C 189.838,258.116 189.004,263.782 188.5,269.5C 187.07,269.421 185.736,269.754 184.5,270.5C 179.39,276.119 174.39,281.953 169.5,288C 165.182,288.789 161.182,290.289 157.5,292.5C 157.709,294.714 156.876,296.381 155,297.5C 151.542,298.813 148.042,299.98 144.5,301C 143.833,303 143.167,305 142.5,307C 141.101,307.595 139.768,307.428 138.5,306.5C 137.735,307.612 136.735,308.279 135.5,308.5C 135.5,298.167 135.5,287.833 135.5,277.5C 137.507,276.321 137.84,276.821 136.5,279C 137.579,279.956 138.745,280.789 140,281.5C 142.667,280.167 144.667,278.167 146,275.5C 147,276.833 148,276.833 149,275.5C 149.49,274.207 149.657,272.873 149.5,271.5C 150.833,271.5 152.167,271.5 153.5,271.5C 153.33,270.178 153.663,269.011 154.5,268C 158.894,264.828 163.227,262.328 167.5,260.5C 171.933,252.85 177.767,247.517 185,244.5C 187.659,237.863 190.325,231.196 193,224.5C 193.5,234.494 193.666,244.494 193.5,254.5 Z"/></g>
<g><path style="opacity:1" fill="#cac9ce" d="M 385.5,198.5 C 389.218,206.706 391.385,215.372 392,224.5C 392.216,239.213 393.049,253.88 394.5,268.5C 393.901,285.469 393.901,302.303 394.5,319C 392.818,329.157 390.984,338.99 389,348.5C 384.862,355.6 380.362,362.433 375.5,369C 371.7,371.129 367.7,372.796 363.5,374C 361.792,376.043 359.792,377.71 357.5,379C 346.729,383.109 335.729,386.442 324.5,389C 315.602,393.444 306.269,396.777 296.5,399C 283.246,399.217 270.246,399.383 257.5,399.5C 238.442,392.135 219.108,385.635 199.5,380C 193.689,376.848 188.022,373.515 182.5,370C 179.269,368.534 175.935,367.367 172.5,366.5C 171.476,365.148 170.476,363.815 169.5,362.5C 172.673,363.553 175.673,365.053 178.5,367C 185.08,367.401 190.413,370.068 194.5,375C 201.963,379.265 209.963,381.932 218.5,383C 226.041,387.925 234.375,390.258 243.5,390C 259.56,395.492 275.893,396.492 292.5,393C 315.118,387.349 337.118,380.016 358.5,371C 364.818,368.018 370.151,363.851 374.5,358.5C 378.099,351.635 381.433,344.635 384.5,337.5C 386.155,333.611 387.822,329.611 389.5,325.5C 389.116,299.545 388.449,273.545 387.5,247.5C 390.957,231.198 389.957,215.198 384.5,199.5C 384.624,198.893 384.957,198.56 385.5,198.5 Z"/></g>
<g><path style="opacity:1" fill="#160719" d="M 318.5,216.5 C 318.5,217.5 318.5,218.5 318.5,219.5C 318.5,221.5 318.5,223.5 318.5,225.5C 317.833,245.5 317.167,265.5 316.5,285.5C 316.831,262.327 316.498,239.327 315.5,216.5C 315.267,214.938 314.6,213.605 313.5,212.5C 314.568,211.566 315.901,211.232 317.5,211.5C 317.216,213.415 317.549,215.081 318.5,216.5 Z"/></g>
<g><path style="opacity:1" fill="#c5a3d6" d="M 379.5,202.5 C 380.558,203.6 381.392,204.934 382,206.5C 382.199,243.185 382.699,279.852 383.5,316.5C 383.068,317.71 382.401,318.71 381.5,319.5C 381.667,282.498 381.5,245.498 381,208.5C 380.187,206.564 379.687,204.564 379.5,202.5 Z"/></g>
<g><path style="opacity:1" fill="#e0dee2" d="M 338.5,155.5 C 341.383,156.31 344.217,156.31 347,155.5C 347.5,155.667 348,155.833 348.5,156C 347.289,156.893 347.289,157.726 348.5,158.5C 349.192,157.975 349.692,157.308 350,156.5C 350.605,158.481 351.605,158.815 353,157.5C 354.844,159.886 357.344,161.053 360.5,161C 359.833,161.333 359.167,161.667 358.5,162C 361.447,162.112 362.78,163.612 362.5,166.5C 363.978,166.238 365.311,166.571 366.5,167.5C 370.154,170.142 373.321,172.475 376,174.5C 376.617,175.449 376.451,176.282 375.5,177C 378.65,180.479 382.15,183.646 386,186.5C 390.188,192.976 395.188,198.976 401,204.5C 402.541,208.012 404.374,211.345 406.5,214.5C 407.124,212.042 408.624,210.376 411,209.5C 411.377,210.942 412.21,211.942 413.5,212.5C 413.5,238.833 413.5,265.167 413.5,291.5C 412.778,291.082 412.278,290.416 412,289.5C 411.05,310.491 410.384,331.491 410,352.5C 409,357.5 408,362.5 407,367.5C 404.713,370.072 403.547,373.072 403.5,376.5C 401.856,376.286 400.356,376.62 399,377.5C 398.383,378.449 398.549,379.282 399.5,380C 396.963,384.19 394.463,388.357 392,392.5C 388.842,395.219 385.342,397.386 381.5,399C 380.473,400.866 379.473,402.7 378.5,404.5C 377.833,404.5 377.5,404.833 377.5,405.5C 364.685,407.756 351.852,409.756 339,411.5C 325.069,410.841 311.235,410.175 297.5,409.5C 302.077,409.142 306.744,408.976 311.5,409C 315.146,406.752 319.146,405.418 323.5,405C 324.46,403.581 325.293,402.081 326,400.5C 327.871,401.668 329.371,401.168 330.5,399C 333.949,398.138 337.283,396.972 340.5,395.5C 341.167,395.833 341.833,396.167 342.5,396.5C 350.537,391.82 358.871,387.82 367.5,384.5C 367.5,383.5 367.5,382.5 367.5,381.5C 372.15,382.232 375.817,380.732 378.5,377C 379.793,376.51 381.127,376.343 382.5,376.5C 382.372,372.796 384.038,370.296 387.5,369C 387.167,368.667 386.833,368.333 386.5,368C 391.311,363.506 394.978,358.339 397.5,352.5C 398.553,344.038 400.219,335.705 402.5,327.5C 403.187,325.726 404.02,324.059 405,322.5C 406.284,315.651 406.784,308.817 406.5,302C 403.758,297.996 403.425,293.996 405.5,290C 404.874,289.25 404.374,288.416 404,287.5C 403.973,280.51 403.139,273.677 401.5,267C 401.44,260.726 401.773,254.393 402.5,248C 401.874,247.25 401.374,246.416 401,245.5C 400.935,236.385 399.935,227.385 398,218.5C 394.237,210.451 391.237,202.118 389,193.5C 384.45,188.768 380.117,183.768 376,178.5C 375.282,179.451 374.449,179.617 373.5,179C 371.131,175.774 368.131,173.608 364.5,172.5C 356.87,165.196 348.204,159.529 338.5,155.5 Z"/></g>
<g><path style="opacity:1" fill="#794e86" d="M 315.5,216.5 C 316.498,239.327 316.831,262.327 316.5,285.5C 315.237,287.807 313.237,289.141 310.5,289.5C 308.565,290.15 306.565,290.483 304.5,290.5C 307.696,289.378 310.696,287.711 313.5,285.5C 314.48,282.914 314.813,280.247 314.5,277.5C 313.5,277.5 312.5,277.5 311.5,277.5C 312.458,276.038 313.624,274.705 315,273.5C 315.5,254.503 315.667,235.503 315.5,216.5 Z"/></g>
<g><path style="opacity:0.999" fill="#f4f4f6" d="M 99.5,157.5 C 99.5546,207.36 99.7212,257.36 100,307.5C 100.5,306.333 101.333,305.5 102.5,305C 102.043,304.586 101.709,304.086 101.5,303.5C 102.631,302.396 103.465,302.729 104,304.5C 107.475,300.896 110.475,296.896 113,292.5C 114.896,290.47 117.063,288.803 119.5,287.5C 119.291,286.914 118.957,286.414 118.5,286C 122.681,285.648 125.015,283.481 125.5,279.5C 127.199,279.66 128.866,279.494 130.5,279C 128.246,277.946 127.913,276.446 129.5,274.5C 125.279,270.072 125.612,266.072 130.5,262.5C 129.833,260.5 129.167,258.5 128.5,256.5C 127.609,255.41 126.609,255.41 125.5,256.5C 124.261,254.993 124.595,253.826 126.5,253C 123.957,250.649 124.623,249.483 128.5,249.5C 128.461,247.641 129.294,246.308 131,245.5C 131.333,242.5 131.667,239.5 132,236.5C 131.954,262.281 132.287,288.281 133,314.5C 133.333,276.167 133.667,237.833 134,199.5C 134.383,198.944 134.883,198.611 135.5,198.5C 135.5,198.833 135.5,199.167 135.5,199.5C 134.518,237.469 134.185,275.469 134.5,313.5C 133.992,315.865 133.325,318.199 132.5,320.5C 133.544,322.768 133.711,325.101 133,327.5C 132.333,326.167 131.667,326.167 131,327.5C 130.843,329.995 130.676,332.328 130.5,334.5C 132.07,334.694 133.57,334.694 135,334.5C 138.438,335.418 139.771,337.418 139,340.5C 140.183,339.269 141.349,339.269 142.5,340.5C 143.064,341.969 143.064,343.635 142.5,345.5C 145.144,349.121 146.977,353.121 148,357.5C 151.223,358.723 152.889,361.056 153,364.5C 155.755,366.766 157.088,369.766 157,373.5C 160.058,377.176 163.058,380.842 166,384.5C 167.049,383.483 168.216,383.316 169.5,384C 169.167,384.333 168.833,384.667 168.5,385C 169.759,385.923 171.092,386.757 172.5,387.5C 171.353,389.585 172.02,391.085 174.5,392C 170.885,391.806 167.218,392.473 163.5,394C 167.5,394.667 171.5,395.333 175.5,396C 177.061,396.941 178.395,398.108 179.5,399.5C 183.985,400.043 188.319,401.043 192.5,402.5C 189.625,403.081 186.958,404.081 184.5,405.5C 186.27,406.82 186.603,408.32 185.5,410C 180.324,410.017 175.491,409.851 171,409.5C 167.399,411.556 163.732,411.222 160,408.5C 159.125,410.513 157.791,410.513 156,408.5C 154.961,409.244 154.461,410.244 154.5,411.5C 152.5,411.5 150.5,411.5 148.5,411.5C 142.085,410.473 136.085,408.473 130.5,405.5C 128.664,403.412 126.331,402.079 123.5,401.5C 121.955,398.056 119.289,396.056 115.5,395.5C 113.587,391.738 111.421,388.071 109,384.5C 108.329,383.748 107.496,383.414 106.5,383.5C 104.356,380.878 103.023,377.878 102.5,374.5C 100.195,366.333 98.8612,358 98.5,349.5C 98.1675,285.331 98.5009,221.331 99.5,157.5 Z"/></g>
<g><path style="opacity:1" fill="#dadada" d="M 197.5,211.5 C 197.539,212.756 197.039,213.756 196,214.5C 195.167,234.175 195.334,253.842 196.5,273.5C 202.598,277.262 207.265,282.262 210.5,288.5C 207.054,287.072 203.387,286.239 199.5,286C 198.692,284.294 197.359,283.461 195.5,283.5C 195.795,281.265 195.461,279.265 194.5,277.5C 194.178,255.758 194.512,234.091 195.5,212.5C 196.167,212.167 196.833,211.833 197.5,211.5 Z"/></g>
<g><path style="opacity:1" fill="#b466ca" d="M 310.5,277.5 C 310.833,277.5 311.167,277.5 311.5,277.5C 312.5,277.5 313.5,277.5 314.5,277.5C 314.813,280.247 314.48,282.914 313.5,285.5C 310.696,287.711 307.696,289.378 304.5,290.5C 302.712,290.785 301.045,290.452 299.5,289.5C 303.521,286.146 307.188,282.479 310.5,278.5C 310.5,278.167 310.5,277.833 310.5,277.5 Z"/></g>
<g><path style="opacity:1" fill="#26252a" d="M 193.5,254.5 C 193.5,262.167 193.5,269.833 193.5,277.5C 192.607,285.024 193.94,292.024 197.5,298.5C 196.85,298.196 196.183,297.863 195.5,297.5C 194.686,299.766 194.186,302.1 194,304.5C 193.163,302.993 191.996,302.493 190.5,303C 188.273,305.564 186.439,308.397 185,311.5C 183.601,312.227 182.101,312.727 180.5,313C 180.018,314.008 179.852,315.175 180,316.5C 177.067,316.933 175.233,318.599 174.5,321.5C 169.147,323.823 163.814,325.823 158.5,327.5C 158.496,329.842 157.663,331.842 156,333.5C 155.821,328.409 153.821,327.409 150,330.5C 149.228,330.355 148.561,330.022 148,329.5C 147.667,331.167 147.333,332.833 147,334.5C 145.605,335.815 144.605,335.481 144,333.5C 143.536,334.094 143.369,334.761 143.5,335.5C 138.67,329.015 136.003,321.681 135.5,313.5C 135.5,311.833 135.5,310.167 135.5,308.5C 136.735,308.279 137.735,307.612 138.5,306.5C 139.768,307.428 141.101,307.595 142.5,307C 143.167,305 143.833,303 144.5,301C 148.042,299.98 151.542,298.813 155,297.5C 156.876,296.381 157.709,294.714 157.5,292.5C 161.182,290.289 165.182,288.789 169.5,288C 174.39,281.953 179.39,276.119 184.5,270.5C 185.736,269.754 187.07,269.421 188.5,269.5C 189.004,263.782 189.838,258.116 191,252.5C 191.333,252.167 191.667,251.833 192,251.5C 192.232,252.737 192.732,253.737 193.5,254.5 Z"/></g>
<g><path style="opacity:1" fill="#c198d6" d="M 374.5,190.5 C 378.293,193.44 379.96,197.44 379.5,202.5C 379.687,204.564 380.187,206.564 381,208.5C 381.5,245.498 381.667,282.498 381.5,319.5C 380.993,324.547 380.16,329.547 379,334.5C 377.45,335.591 376.283,336.924 375.5,338.5C 375.198,335.941 375.532,333.607 376.5,331.5C 379.906,320.557 381.24,309.224 380.5,297.5C 379.208,274.833 379.208,252.166 380.5,229.5C 380.765,220.109 379.432,211.109 376.5,202.5C 376.048,198.454 375.381,194.454 374.5,190.5 Z"/></g>
<g><path style="opacity:1" fill="#170e1b" d="M 368.5,179.5 C 370.588,181.336 371.921,183.669 372.5,186.5C 373.11,187.391 373.443,188.391 373.5,189.5C 374.154,195.81 374.654,202.143 375,208.5C 375.667,242.833 375.667,277.167 375,311.5C 374.66,317.618 372.826,322.952 369.5,327.5C 373.155,316.997 373.488,306.331 370.5,295.5C 372.105,289.742 373.105,283.742 373.5,277.5C 372.315,263.464 372.315,249.464 373.5,235.5C 373.212,227.29 373.545,219.124 374.5,211C 373.035,204.928 372.202,198.762 372,192.5C 370.7,189.705 369.2,187.039 367.5,184.5C 368.309,182.929 368.643,181.262 368.5,179.5 Z"/></g>
<g><path style="opacity:0.412" fill="#a09fa1" d="M 99.5,147.5 C 99.5,150.833 99.5,154.167 99.5,157.5C 98.5009,221.331 98.1675,285.331 98.5,349.5C 98.1667,349.5 97.8333,349.5 97.5,349.5C 96.3413,290.874 96.1747,232.207 97,173.5C 97.0378,164.603 97.8711,155.936 99.5,147.5 Z"/></g>
<g><path style="opacity:1" fill="#bdaec8" d="M 380.5,193.5 C 381.79,194.058 382.623,195.058 383,196.5C 383.794,200.55 384.794,204.55 386,208.5C 388.481,217.095 387.981,225.428 384.5,233.5C 384.5,242.833 384.5,252.166 384.5,261.5C 385.032,276.536 386.032,291.536 387.5,306.5C 385.89,315.138 384.39,323.805 383,332.5C 381.663,336.507 379.83,340.173 377.5,343.5C 374.855,346.473 371.855,349.14 368.5,351.5C 368.44,350.957 368.107,350.624 367.5,350.5C 365.408,352.605 363.075,354.272 360.5,355.5C 359.5,355.5 358.5,355.5 357.5,355.5C 358.5,354.833 359.5,354.167 360.5,353.5C 366.808,349.858 371.808,344.858 375.5,338.5C 376.283,336.924 377.45,335.591 379,334.5C 380.16,329.547 380.993,324.547 381.5,319.5C 382.401,318.71 383.068,317.71 383.5,316.5C 383.191,303.822 383.525,291.156 384.5,278.5C 383.676,253.876 383.176,229.209 383,204.5C 381.846,200.896 381.013,197.229 380.5,193.5 Z"/></g>
<g><path style="opacity:1" fill="#949496" d="M 194.5,277.5 C 195.461,279.265 195.795,281.265 195.5,283.5C 197.359,283.461 198.692,284.294 199.5,286C 203.387,286.239 207.054,287.072 210.5,288.5C 212.833,290.167 214.833,292.167 216.5,294.5C 209.237,293.868 202.57,291.535 196.5,287.5C 194.817,284.398 194.151,281.064 194.5,277.5 Z"/></g>
<g><path style="opacity:1" fill="#986fa7" d="M 310.5,278.5 C 307.188,282.479 303.521,286.146 299.5,289.5C 301.045,290.452 302.712,290.785 304.5,290.5C 301.5,291.833 298.5,293.167 295.5,294.5C 294.167,294.833 292.833,295.167 291.5,295.5C 291.833,294.833 292.167,294.167 292.5,293.5C 298.519,288.477 304.519,283.477 310.5,278.5 Z"/></g>
<g><path style="opacity:1" fill="#391b49" d="M 310.5,289.5 C 307.803,291.441 304.803,292.941 301.5,294C 299.527,294.495 297.527,294.662 295.5,294.5C 298.5,293.167 301.5,291.833 304.5,290.5C 306.565,290.483 308.565,290.15 310.5,289.5 Z"/></g>
<g><path style="opacity:1" fill="#373639" d="M 193.5,277.5 C 193.833,277.5 194.167,277.5 194.5,277.5C 194.151,281.064 194.817,284.398 196.5,287.5C 202.57,291.535 209.237,293.868 216.5,294.5C 218.23,295.026 219.564,296.026 220.5,297.5C 218.958,298.301 217.292,298.634 215.5,298.5C 215.587,295.402 215.087,295.068 214,297.5C 209.995,295.935 206.162,296.268 202.5,298.5C 201.158,297.098 200.324,297.431 200,299.5C 199.329,298.748 198.496,298.414 197.5,298.5C 193.94,292.024 192.607,285.024 193.5,277.5 Z"/></g>
<g><path style="opacity:1" fill="#1c1c1e" d="M 259.5,260.5 C 259.334,267.508 259.5,274.508 260,281.5C 268.084,286.459 276.251,291.293 284.5,296C 286.134,296.494 287.801,296.66 289.5,296.5C 288.192,297.232 286.858,298.066 285.5,299C 286.711,299.893 286.711,300.726 285.5,301.5C 279.793,303.34 274.46,305.84 269.5,309C 258.818,312.24 248.151,312.24 237.5,309C 233.241,306.58 228.741,304.747 224,303.5C 221.144,304.526 217.977,305.692 214.5,307C 215.167,307.333 215.833,307.667 216.5,308C 214.5,308.667 212.5,308.667 210.5,308C 206.964,305.634 203.297,303.467 199.5,301.5C 199.694,303.263 199.694,305.097 199.5,307C 200.333,307.833 201.167,308.667 202,309.5C 205.377,318.089 208.877,326.589 212.5,335C 211.833,335.333 211.167,335.667 210.5,336C 211.5,337.667 212.833,339 214.5,340C 213.074,343.585 211.74,347.251 210.5,351C 211.167,351.333 211.833,351.667 212.5,352C 211.241,352.923 209.908,353.757 208.5,354.5C 209.59,355.609 209.59,356.609 208.5,357.5C 206.547,358.024 204.88,359.024 203.5,360.5C 202.197,359.282 201.197,359.615 200.5,361.5C 194.815,360.924 189.148,360.757 183.5,361C 186.225,362.815 189.058,363.315 192,362.5C 196.564,363.451 200.397,365.451 203.5,368.5C 193.939,366.112 184.605,363.112 175.5,359.5C 169.69,358.262 164.357,355.928 159.5,352.5C 156.681,349.925 153.681,347.592 150.5,345.5C 148.823,343.46 147.156,341.46 145.5,339.5C 144.4,338.395 143.733,337.062 143.5,335.5C 143.369,334.761 143.536,334.094 144,333.5C 144.605,335.481 145.605,335.815 147,334.5C 147.333,332.833 147.667,331.167 148,329.5C 148.561,330.022 149.228,330.355 150,330.5C 153.821,327.409 155.821,328.409 156,333.5C 157.663,331.842 158.496,329.842 158.5,327.5C 163.814,325.823 169.147,323.823 174.5,321.5C 175.233,318.599 177.067,316.933 180,316.5C 179.852,315.175 180.018,314.008 180.5,313C 182.101,312.727 183.601,312.227 185,311.5C 186.439,308.397 188.273,305.564 190.5,303C 191.996,302.493 193.163,302.993 194,304.5C 194.186,302.1 194.686,299.766 195.5,297.5C 196.183,297.863 196.85,298.196 197.5,298.5C 198.496,298.414 199.329,298.748 200,299.5C 200.324,297.431 201.158,297.098 202.5,298.5C 206.162,296.268 209.995,295.935 214,297.5C 215.087,295.068 215.587,295.402 215.5,298.5C 217.292,298.634 218.958,298.301 220.5,297.5C 229.167,292.5 237.833,287.5 246.5,282.5C 247.496,282.586 248.329,282.252 249,281.5C 249.368,282.91 250.201,283.91 251.5,284.5C 253.595,282.411 255.428,282.411 257,284.5C 258.069,276.398 258.903,268.398 259.5,260.5 Z"/></g>
<g><path style="opacity:1" fill="#0d0d0f" d="M 318.5,219.5 C 322.009,221.379 323.342,224.379 322.5,228.5C 323.675,228.281 324.675,228.614 325.5,229.5C 326.721,232.648 329.054,234.482 332.5,235C 332.167,235.333 331.833,235.667 331.5,236C 332.787,237.41 333.954,238.91 335,240.5C 337.77,248.982 340.103,257.649 342,266.5C 342.333,270.833 342.667,275.167 343,279.5C 346.409,278.378 349.909,278.211 353.5,279C 355.013,281.846 357.179,284.013 360,285.5C 362.134,283.713 362.967,281.38 362.5,278.5C 363.833,278.5 365.167,278.5 366.5,278.5C 366.177,282.226 366.511,285.893 367.5,289.5C 367.542,284.955 367.709,280.288 368,275.5C 368.451,273.071 369.285,272.904 370.5,275C 370.391,281.682 370.391,288.516 370.5,295.5C 373.488,306.331 373.155,316.997 369.5,327.5C 367.631,329.635 366.964,332.302 367.5,335.5C 365.199,338.81 362.866,342.143 360.5,345.5C 360.167,345.5 359.833,345.5 359.5,345.5C 354.693,349.98 349.36,353.647 343.5,356.5C 317.898,366.32 291.564,373.82 264.5,379C 258.843,379.499 253.176,379.666 247.5,379.5C 242.103,378.817 236.769,377.817 231.5,376.5C 221.831,374.706 212.498,372.04 203.5,368.5C 200.397,365.451 196.564,363.451 192,362.5C 189.058,363.315 186.225,362.815 183.5,361C 189.148,360.757 194.815,360.924 200.5,361.5C 201.197,359.615 202.197,359.282 203.5,360.5C 204.88,359.024 206.547,358.024 208.5,357.5C 209.59,356.609 209.59,355.609 208.5,354.5C 209.908,353.757 211.241,352.923 212.5,352C 211.833,351.667 211.167,351.333 210.5,351C 211.74,347.251 213.074,343.585 214.5,340C 212.833,339 211.5,337.667 210.5,336C 211.167,335.667 211.833,335.333 212.5,335C 208.877,326.589 205.377,318.089 202,309.5C 201.167,308.667 200.333,307.833 199.5,307C 199.694,305.097 199.694,303.263 199.5,301.5C 203.297,303.467 206.964,305.634 210.5,308C 212.5,308.667 214.5,308.667 216.5,308C 215.833,307.667 215.167,307.333 214.5,307C 217.977,305.692 221.144,304.526 224,303.5C 228.741,304.747 233.241,306.58 237.5,309C 248.151,312.24 258.818,312.24 269.5,309C 274.46,305.84 279.793,303.34 285.5,301.5C 286.711,300.726 286.711,299.893 285.5,299C 286.858,298.066 288.192,297.232 289.5,296.5C 290.167,296.167 290.833,295.833 291.5,295.5C 292.833,295.167 294.167,294.833 295.5,294.5C 297.527,294.662 299.527,294.495 301.5,294C 304.803,292.941 307.803,291.441 310.5,289.5C 313.237,289.141 315.237,287.807 316.5,285.5C 317.556,293.734 314.556,299.901 307.5,304C 293.051,311.726 278.718,319.726 264.5,328C 261.436,329.244 258.269,330.077 255,330.5C 251.185,329.626 247.351,329.46 243.5,330C 244.833,330.667 246.167,331.333 247.5,332C 247.93,332.92 248.264,333.753 248.5,334.5C 249.167,334.167 249.833,333.833 250.5,333.5C 251.864,336.017 253.864,337.851 256.5,339C 261.925,340.185 267.258,341.685 272.5,343.5C 275.482,344.332 278.482,344.499 281.5,344C 288.046,340.233 294.379,336.233 300.5,332C 301.833,332 303.167,332 304.5,332C 303.833,331.333 303.167,330.667 302.5,330C 303.744,327.697 305.411,327.197 307.5,328.5C 312.518,324.315 317.018,319.649 321,314.5C 321.49,313.207 321.657,311.873 321.5,310.5C 322.5,310.5 323.5,310.5 324.5,310.5C 326.163,302.358 327.497,294.191 328.5,286C 327.874,285.25 327.374,284.416 327,283.5C 326.718,279.961 326.218,276.461 325.5,273C 325.645,272.228 325.978,271.561 326.5,271C 323.959,260.802 322.792,250.302 323,239.5C 321.743,234.678 320.243,230.012 318.5,225.5C 318.5,223.5 318.5,221.5 318.5,219.5 Z"/></g>
<g><path style="opacity:0.569" fill="#e6d8ea" d="M 413.5,291.5 C 413.5,311.833 413.5,332.167 413.5,352.5C 413.651,358.406 412.651,364.072 410.5,369.5C 407.639,373.274 404.973,377.274 402.5,381.5C 401.619,384.13 400.952,386.797 400.5,389.5C 395.48,393.844 390.147,397.844 384.5,401.5C 383.388,402.265 382.721,403.265 382.5,404.5C 381.167,404.5 379.833,404.5 378.5,404.5C 379.473,402.7 380.473,400.866 381.5,399C 385.342,397.386 388.842,395.219 392,392.5C 394.463,388.357 396.963,384.19 399.5,380C 398.549,379.282 398.383,378.449 399,377.5C 400.356,376.62 401.856,376.286 403.5,376.5C 403.547,373.072 404.713,370.072 407,367.5C 408,362.5 409,357.5 410,352.5C 410.384,331.491 411.05,310.491 412,289.5C 412.278,290.416 412.778,291.082 413.5,291.5 Z"/></g>
<g><path style="opacity:1" fill="#b784c9" d="M 376.5,202.5 C 379.432,211.109 380.765,220.109 380.5,229.5C 379.208,252.166 379.208,274.833 380.5,297.5C 381.24,309.224 379.906,320.557 376.5,331.5C 376.799,329.396 376.466,327.396 375.5,325.5C 374.056,326.981 373.389,326.648 373.5,324.5C 374.645,320.584 375.478,316.584 376,312.5C 376.5,275.835 376.667,239.168 376.5,202.5 Z"/></g>
<g><path style="opacity:1" fill="#af74c8" d="M 373.5,324.5 C 373.389,326.648 374.056,326.981 375.5,325.5C 376.466,327.396 376.799,329.396 376.5,331.5C 375.532,333.607 375.198,335.941 375.5,338.5C 374.325,338.281 373.325,338.614 372.5,339.5C 370.1,343.49 366.6,346.157 362,347.5C 360.97,347.164 360.47,346.497 360.5,345.5C 362.866,342.143 365.199,338.81 367.5,335.5C 370.492,332.349 372.492,328.683 373.5,324.5 Z"/></g>
<g><path style="opacity:1" fill="#eceaee" d="M 134.5,313.5 C 134.833,313.5 135.167,313.5 135.5,313.5C 136.003,321.681 138.67,329.015 143.5,335.5C 143.733,337.062 144.4,338.395 145.5,339.5C 147.731,347.162 152.064,353.496 158.5,358.5C 160.306,361.472 162.306,364.305 164.5,367C 185.655,379.577 207.655,390.577 230.5,400C 233.429,403.759 237.095,406.592 241.5,408.5C 239.709,409.17 238.042,409.837 236.5,410.5C 230.25,410.184 224.25,410.85 218.5,412.5C 214.833,412.5 211.167,412.5 207.5,412.5C 189.799,412.793 172.132,412.459 154.5,411.5C 154.461,410.244 154.961,409.244 156,408.5C 157.791,410.513 159.125,410.513 160,408.5C 163.732,411.222 167.399,411.556 171,409.5C 175.491,409.851 180.324,410.017 185.5,410C 186.603,408.32 186.27,406.82 184.5,405.5C 186.958,404.081 189.625,403.081 192.5,402.5C 188.319,401.043 183.985,400.043 179.5,399.5C 178.395,398.108 177.061,396.941 175.5,396C 171.5,395.333 167.5,394.667 163.5,394C 167.218,392.473 170.885,391.806 174.5,392C 172.02,391.085 171.353,389.585 172.5,387.5C 171.092,386.757 169.759,385.923 168.5,385C 168.833,384.667 169.167,384.333 169.5,384C 168.216,383.316 167.049,383.483 166,384.5C 163.058,380.842 160.058,377.176 157,373.5C 157.088,369.766 155.755,366.766 153,364.5C 152.889,361.056 151.223,358.723 148,357.5C 146.977,353.121 145.144,349.121 142.5,345.5C 143.064,343.635 143.064,341.969 142.5,340.5C 141.349,339.269 140.183,339.269 139,340.5C 139.771,337.418 138.438,335.418 135,334.5C 133.57,334.694 132.07,334.694 130.5,334.5C 130.676,332.328 130.843,329.995 131,327.5C 131.667,326.167 132.333,326.167 133,327.5C 133.711,325.101 133.544,322.768 132.5,320.5C 133.325,318.199 133.992,315.865 134.5,313.5 Z"/></g>
<g><path style="opacity:1" fill="#a07cb9" d="M 375.5,338.5 C 371.808,344.858 366.808,349.858 360.5,353.5C 357.402,353.587 357.068,353.087 359.5,352C 358.833,351.667 358.167,351.333 357.5,351C 357.587,349.25 358.254,347.417 359.5,345.5C 359.833,345.5 360.167,345.5 360.5,345.5C 360.47,346.497 360.97,347.164 362,347.5C 366.6,346.157 370.1,343.49 372.5,339.5C 373.325,338.614 374.325,338.281 375.5,338.5 Z"/></g>
<g><path style="opacity:0.196" fill="#929293" d="M 97.5,349.5 C 97.8333,349.5 98.1667,349.5 98.5,349.5C 98.8612,358 100.195,366.333 102.5,374.5C 98.6784,366.726 97.0118,358.393 97.5,349.5 Z"/></g>
<g><path style="opacity:1" fill="#bebdc3" d="M 384.5,337.5 C 381.433,344.635 378.099,351.635 374.5,358.5C 370.151,363.851 364.818,368.018 358.5,371C 337.118,380.016 315.118,387.349 292.5,393C 275.893,396.492 259.56,395.492 243.5,390C 234.375,390.258 226.041,387.925 218.5,383C 209.963,381.932 201.963,379.265 194.5,375C 190.413,370.068 185.08,367.401 178.5,367C 175.673,365.053 172.673,363.553 169.5,362.5C 169.586,361.504 169.252,360.671 168.5,360C 166.167,358.833 163.833,357.667 161.5,356.5C 160.295,355.423 159.628,354.09 159.5,352.5C 164.357,355.928 169.69,358.262 175.5,359.5C 178.186,361.135 179.853,363.135 180.5,365.5C 183.761,366.711 187.095,367.711 190.5,368.5C 192.184,369.15 193.517,370.15 194.5,371.5C 214.181,380.332 234.848,386.499 256.5,390C 263.141,391.119 269.808,391.453 276.5,391C 305.181,385.915 332.848,377.581 359.5,366C 361.132,361.203 364.466,358.37 369.5,357.5C 371.856,354.1 374.189,350.767 376.5,347.5C 376.81,348.738 377.31,348.738 378,347.5C 379.924,343.983 381.591,340.316 383,336.5C 384.107,335.288 384.607,335.621 384.5,337.5 Z"/></g>
<g><path style="opacity:1" fill="#d9d8dc" d="M 364.5,172.5 C 368.131,173.608 371.131,175.774 373.5,179C 374.449,179.617 375.282,179.451 376,178.5C 380.117,183.768 384.45,188.768 389,193.5C 391.237,202.118 394.237,210.451 398,218.5C 399.935,227.385 400.935,236.385 401,245.5C 401.374,246.416 401.874,247.25 402.5,248C 401.773,254.393 401.44,260.726 401.5,267C 403.139,273.677 403.973,280.51 404,287.5C 404.374,288.416 404.874,289.25 405.5,290C 403.425,293.996 403.758,297.996 406.5,302C 406.784,308.817 406.284,315.651 405,322.5C 404.02,324.059 403.187,325.726 402.5,327.5C 400.219,335.705 398.553,344.038 397.5,352.5C 394.978,358.339 391.311,363.506 386.5,368C 386.833,368.333 387.167,368.667 387.5,369C 384.038,370.296 382.372,372.796 382.5,376.5C 381.127,376.343 379.793,376.51 378.5,377C 375.817,380.732 372.15,382.232 367.5,381.5C 367.5,382.5 367.5,383.5 367.5,384.5C 358.871,387.82 350.537,391.82 342.5,396.5C 341.833,396.167 341.167,395.833 340.5,395.5C 337.283,396.972 333.949,398.138 330.5,399C 329.371,401.168 327.871,401.668 326,400.5C 325.293,402.081 324.46,403.581 323.5,405C 319.146,405.418 315.146,406.752 311.5,409C 306.744,408.976 302.077,409.142 297.5,409.5C 286.548,409.535 275.381,408.868 264,407.5C 262.055,408.863 259.888,409.697 257.5,410C 250.508,410.5 243.508,410.666 236.5,410.5C 238.042,409.837 239.709,409.17 241.5,408.5C 237.095,406.592 233.429,403.759 230.5,400C 207.655,390.577 185.655,379.577 164.5,367C 162.306,364.305 160.306,361.472 158.5,358.5C 152.064,353.496 147.731,347.162 145.5,339.5C 147.156,341.46 148.823,343.46 150.5,345.5C 151.013,347.854 152.179,349.854 154,351.5C 159.526,356.695 165.026,361.861 170.5,367C 179.647,371.407 188.647,376.073 197.5,381C 216.619,387.228 235.285,394.561 253.5,403C 261.674,403.173 269.674,404.007 277.5,405.5C 280.906,405.704 284.072,405.038 287,403.5C 288.585,404.376 289.585,405.709 290,407.5C 292.409,405.401 295.076,403.734 298,402.5C 300.068,403.342 302.235,403.342 304.5,402.5C 308.95,400.545 313.284,398.379 317.5,396C 324.367,395.376 330.701,393.376 336.5,390C 341.392,388.056 346.392,386.39 351.5,385C 352.891,383.35 354.391,382.85 356,383.5C 363.637,378.932 371.471,374.765 379.5,371C 381.572,367.798 383.072,364.298 384,360.5C 384.667,361.833 385.333,361.833 386,360.5C 389.105,355.064 391.605,349.73 393.5,344.5C 393.291,343.914 392.957,343.414 392.5,343C 394.004,341.509 394.837,339.676 395,337.5C 397.785,336.712 398.951,334.879 398.5,332C 398.447,297.332 397.947,262.832 397,228.5C 394.656,219.13 391.989,209.797 389,200.5C 387.391,197.593 385.558,194.927 383.5,192.5C 380.32,187.825 376.653,183.658 372.5,180C 371.255,179.209 369.922,178.709 368.5,178.5C 366.774,176.772 365.441,174.772 364.5,172.5 Z"/></g>
<g><path style="opacity:0.875" fill="#b4a5b7" d="M 410.5,369.5 C 408.734,377.032 405.401,383.699 400.5,389.5C 400.952,386.797 401.619,384.13 402.5,381.5C 404.973,377.274 407.639,373.274 410.5,369.5 Z"/></g>
<g><path style="opacity:1" fill="#b0afb6" d="M 377.5,343.5 C 377.167,344.833 376.833,346.167 376.5,347.5C 374.189,350.767 371.856,354.1 369.5,357.5C 364.466,358.37 361.132,361.203 359.5,366C 332.848,377.581 305.181,385.915 276.5,391C 269.808,391.453 263.141,391.119 256.5,390C 234.848,386.499 214.181,380.332 194.5,371.5C 210.026,374.769 225.359,378.603 240.5,383C 244.703,385.129 249.037,386.795 253.5,388C 261.5,388.667 269.5,388.667 277.5,388C 287.404,385.685 297.404,384.019 307.5,383C 309.301,382.683 309.634,382.016 308.5,381C 317.939,378.187 327.272,375.187 336.5,372C 339.445,368.116 343.445,366.116 348.5,366C 354.089,363.401 359.423,360.401 364.5,357C 366.464,355.549 367.797,353.716 368.5,351.5C 371.855,349.14 374.855,346.473 377.5,343.5 Z"/></g>
<g><path style="opacity:0.016" fill="#747477" d="M 106.5,383.5 C 107.496,383.414 108.329,383.748 109,384.5C 111.421,388.071 113.587,391.738 115.5,395.5C 111.762,392.09 108.762,388.09 106.5,383.5 Z"/></g>
<g><path style="opacity:1" fill="#d2d1d5" d="M 383.5,192.5 C 385.558,194.927 387.391,197.593 389,200.5C 391.989,209.797 394.656,219.13 397,228.5C 397.947,262.832 398.447,297.332 398.5,332C 398.951,334.879 397.785,336.712 395,337.5C 394.837,339.676 394.004,341.509 392.5,343C 392.957,343.414 393.291,343.914 393.5,344.5C 391.605,349.73 389.105,355.064 386,360.5C 385.333,361.833 384.667,361.833 384,360.5C 383.072,364.298 381.572,367.798 379.5,371C 371.471,374.765 363.637,378.932 356,383.5C 354.391,382.85 352.891,383.35 351.5,385C 346.392,386.39 341.392,388.056 336.5,390C 330.701,393.376 324.367,395.376 317.5,396C 313.284,398.379 308.95,400.545 304.5,402.5C 302.235,403.342 300.068,403.342 298,402.5C 295.076,403.734 292.409,405.401 290,407.5C 289.585,405.709 288.585,404.376 287,403.5C 284.072,405.038 280.906,405.704 277.5,405.5C 269.674,404.007 261.674,403.173 253.5,403C 235.285,394.561 216.619,387.228 197.5,381C 188.647,376.073 179.647,371.407 170.5,367C 165.026,361.861 159.526,356.695 154,351.5C 152.179,349.854 151.013,347.854 150.5,345.5C 153.681,347.592 156.681,349.925 159.5,352.5C 159.628,354.09 160.295,355.423 161.5,356.5C 163.833,357.667 166.167,358.833 168.5,360C 169.252,360.671 169.586,361.504 169.5,362.5C 170.476,363.815 171.476,365.148 172.5,366.5C 175.935,367.367 179.269,368.534 182.5,370C 188.022,373.515 193.689,376.848 199.5,380C 219.108,385.635 238.442,392.135 257.5,399.5C 270.246,399.383 283.246,399.217 296.5,399C 306.269,396.777 315.602,393.444 324.5,389C 335.729,386.442 346.729,383.109 357.5,379C 359.792,377.71 361.792,376.043 363.5,374C 367.7,372.796 371.7,371.129 375.5,369C 380.362,362.433 384.862,355.6 389,348.5C 390.984,338.99 392.818,329.157 394.5,319C 393.901,302.303 393.901,285.469 394.5,268.5C 393.049,253.88 392.216,239.213 392,224.5C 391.385,215.372 389.218,206.706 385.5,198.5C 384.27,196.703 383.604,194.703 383.5,192.5 Z"/></g>
<g><path style="opacity:1" fill="#9f9da5" d="M 368.5,351.5 C 367.797,353.716 366.464,355.549 364.5,357C 359.423,360.401 354.089,363.401 348.5,366C 343.445,366.116 339.445,368.116 336.5,372C 327.272,375.187 317.939,378.187 308.5,381C 309.634,382.016 309.301,382.683 307.5,383C 297.404,384.019 287.404,385.685 277.5,388C 269.5,388.667 261.5,388.667 253.5,388C 249.037,386.795 244.703,385.129 240.5,383C 225.359,378.603 210.026,374.769 194.5,371.5C 193.517,370.15 192.184,369.15 190.5,368.5C 187.095,367.711 183.761,366.711 180.5,365.5C 179.853,363.135 178.186,361.135 175.5,359.5C 184.605,363.112 193.939,366.112 203.5,368.5C 212.498,372.04 221.831,374.706 231.5,376.5C 231.47,377.497 231.97,378.164 233,378.5C 237.842,380.183 242.676,381.683 247.5,383C 266.949,385.094 285.949,383.094 304.5,377C 314.665,373.374 324.999,370.207 335.5,367.5C 343.825,363.348 352.159,359.348 360.5,355.5C 363.075,354.272 365.408,352.605 367.5,350.5C 368.107,350.624 368.44,350.957 368.5,351.5 Z"/></g>
<g><path style="opacity:1" fill="#797881" d="M 343.5,356.5 C 343.5,356.833 343.5,357.167 343.5,357.5C 341.467,357.949 339.8,358.949 338.5,360.5C 334.253,361.022 330.253,362.189 326.5,364C 327.328,364.915 328.328,365.581 329.5,366C 323.771,367.009 318.438,369.009 313.5,372C 302.041,374.575 290.708,377.575 279.5,381C 276.052,381.859 272.552,382.359 269,382.5C 261.423,382.392 254.256,381.392 247.5,379.5C 253.176,379.666 258.843,379.499 264.5,379C 291.564,373.82 317.898,366.32 343.5,356.5 Z"/></g>
<g><path style="opacity:1" fill="#898792" d="M 357.5,355.5 C 358.5,355.5 359.5,355.5 360.5,355.5C 352.159,359.348 343.825,363.348 335.5,367.5C 324.999,370.207 314.665,373.374 304.5,377C 285.949,383.094 266.949,385.094 247.5,383C 242.676,381.683 237.842,380.183 233,378.5C 231.97,378.164 231.47,377.497 231.5,376.5C 236.769,377.817 242.103,378.817 247.5,379.5C 254.256,381.392 261.423,382.392 269,382.5C 272.552,382.359 276.052,381.859 279.5,381C 290.708,377.575 302.041,374.575 313.5,372C 318.438,369.009 323.771,367.009 329.5,366C 328.328,365.581 327.328,364.915 326.5,364C 330.253,362.189 334.253,361.022 338.5,360.5C 339.8,358.949 341.467,357.949 343.5,357.5C 343.484,359.484 344.484,360.484 346.5,360.5C 350.576,359.627 354.242,357.96 357.5,355.5 Z"/></g>
<g><path style="opacity:1" fill="#877897" d="M 359.5,345.5 C 358.254,347.417 357.587,349.25 357.5,351C 358.167,351.333 358.833,351.667 359.5,352C 357.068,353.087 357.402,353.587 360.5,353.5C 359.5,354.167 358.5,354.833 357.5,355.5C 354.242,357.96 350.576,359.627 346.5,360.5C 344.484,360.484 343.484,359.484 343.5,357.5C 343.5,357.167 343.5,356.833 343.5,356.5C 349.36,353.647 354.693,349.98 359.5,345.5 Z"/></g>
<g><path style="opacity:0.094" fill="#8e7e91" d="M 400.5,389.5 C 396.327,396.671 390.327,401.671 382.5,404.5C 382.721,403.265 383.388,402.265 384.5,401.5C 390.147,397.844 395.48,393.844 400.5,389.5 Z"/></g>
<g><path style="opacity:0.098" fill="#797979" d="M 115.5,395.5 C 119.289,396.056 121.955,398.056 123.5,401.5C 120.467,399.984 117.8,397.984 115.5,395.5 Z"/></g>
<g><path style="opacity:0.008" fill="#747374" d="M 123.5,401.5 C 126.331,402.079 128.664,403.412 130.5,405.5C 127.669,404.921 125.336,403.588 123.5,401.5 Z"/></g>
<g><path style="opacity:0.545" fill="#ac96af" d="M 378.5,404.5 C 379.833,404.5 381.167,404.5 382.5,404.5C 377.037,407.992 371.037,410.325 364.5,411.5C 368.319,408.34 372.652,406.34 377.5,405.5C 377.5,404.833 377.833,404.5 378.5,404.5 Z"/></g>
<g><path style="opacity:0.86" fill="#e8dced" d="M 377.5,405.5 C 372.652,406.34 368.319,408.34 364.5,411.5C 364.167,411.5 363.833,411.5 363.5,411.5C 340.847,412.385 318.18,412.718 295.5,412.5C 269.833,412.5 244.167,412.5 218.5,412.5C 224.25,410.85 230.25,410.184 236.5,410.5C 243.508,410.666 250.508,410.5 257.5,410C 259.888,409.697 262.055,408.863 264,407.5C 275.381,408.868 286.548,409.535 297.5,409.5C 311.235,410.175 325.069,410.841 339,411.5C 351.852,409.756 364.685,407.756 377.5,405.5 Z"/></g>
<g><path style="opacity:0.378" fill="#aca0b1" d="M 148.5,411.5 C 150.5,411.5 152.5,411.5 154.5,411.5C 172.132,412.459 189.799,412.793 207.5,412.5C 207.5,413.167 207.5,413.833 207.5,414.5C 195.405,414.411 183.405,414.411 171.5,414.5C 163.66,413.896 155.993,412.896 148.5,411.5 Z"/></g>
<g><path style="opacity:0.186" fill="#a386b1" d="M 207.5,412.5 C 211.167,412.5 214.833,412.5 218.5,412.5C 244.167,412.5 269.833,412.5 295.5,412.5C 295.167,413.167 294.833,413.833 294.5,414.5C 265.491,413.801 236.491,413.801 207.5,414.5C 207.5,413.833 207.5,413.167 207.5,412.5 Z"/></g>
<g><path style="opacity:0.18" fill="#b2a6b6" d="M 363.5,411.5 C 351.044,413.164 338.378,414.164 325.5,414.5C 315.161,413.167 304.827,413.167 294.5,414.5C 294.833,413.833 295.167,413.167 295.5,412.5C 318.18,412.718 340.847,412.385 363.5,411.5 Z"/></g>
<g><path style="opacity:0.047" fill="#454545" d="M -0.5,509.5 C 1.02694,509.427 2.02694,510.094 2.5,511.5C 1.5,511.5 0.5,511.5 -0.5,511.5C -0.5,510.833 -0.5,510.167 -0.5,509.5 Z"/></g>
</svg>
